<svg id="Capa_1" data-name="Capa 1" xmlns="http://www.w3.org/2000/svg" viewBox="0 0 523.59 128.25"><path d="M223.9,46.17h0l-3.35,11.88,3.35-11.88Z"/><path d="M241.14,72l-3.69,0Z"/><path d="M240.19,89.7h0l-22.13.08,22.13-.08Z"/><path d="M244.83,72l-3.7,0Z"/><path d="M242.13,88.19,246,73.49,242.13,88.2h0Z"/><path d="M323.61,20.49l-7.18,33.76Z"/><path d="M305.15,20.49,299.7,45.71l5.45-25.22Z"/><path d="M322.38,19H307a2,2,0,0,0-1.88,1.52l-5.45,25.22-5.45,25.22a2,2,0,0,1-1.88,1.51H281.49c-10.75,0-9.51-7.43-7.3-17.62l.06-.31.24-1.28c0-.09,0-.17.05-.25l.49-2.61.53-2.8c.16-.85.4-2.08.56-2.86L278.6,32.6l2.48-12.11A1.22,1.22,0,0,0,279.84,19H264.07a2,2,0,0,0-1.87,1.52l-3.38,16.08-3.39,16.08s0,0,0,0l-.31,1.49C251.2,72,252.24,89,273.45,89.51l.62,0h33.3A2,2,0,0,0,309.25,88l7.18-33.76,7.18-33.76A1.22,1.22,0,0,0,322.38,19Z"/><path d="M383.64,72.62a1.22,1.22,0,0,1,1.24,1.52l-1.49,7.29"/><path d="M381.9,88.72l1.49-7.29-1.49,7.29Z"/><path d="M380,90.25h0c-4.52,0-18.1.14-28.31.14,12.42,0,28.3-.14,28.3-.14Z"/><path d="M342.57,63.23c0-.79.9-2.17,1.75-2.17l-1.92,0c-.86,8.69.17,2.2.17,2.2Z"/><path d="M353.13,90.39h0Z"/><path d="M383.64,72.62a1.22,1.22,0,0,1,1.24,1.52l-1.49,7.29-.24,1.19"/><path d="M355.48,90.38h0Z"/><path d="M356.41,90.38h0Z"/><path d="M360.34,90.37h0Z"/><path d="M380,90.25h0c-3.31,0-11.49.09-19.64.12C368.55,90.34,376.73,90.28,380,90.25Z"/><path d="M381.9,88.72l1.25-6.1-1.25,6.11Z"/><path d="M129.36,63.42l2.39-10.58L129,64.93,126.4,77.24l2.29-10.79c.18-.84.48-2.2.67-3Z"/><path d="M157.91,18.79H141.05a2,2,0,0,0-1.9,1.51l-1.6,7.06L136,34.42a1.19,1.19,0,0,0,1.21,1.51h17A2,2,0,0,0,156,34.42l1.54-7.06,1.55-7h0a1.2,1.2,0,0,0-1.22-1.52Z"/><path d="M154.24,42.27h0l-5,22.88Z"/><path d="M105.25,118.09s8.5.11,13.9.11c-4.1,0-10.88-.08-13.91-.11Z"/><path d="M134.13,42.27l-2.39,10.57Z"/><path d="M153,40.76H136a2,2,0,0,0-1.89,1.51l-2.39,10.57-2.38,10.58c-.19.83-.49,2.19-.67,3L126.4,77.24,124.11,88c-.18.83-.55,2.17-.82,3,0,0-3.18,9.45-8.51,9.34h-.67l-4.62-.09h0a2,2,0,0,0-1.91,1.48l-1.76,7.41-1.76,7.41a1.19,1.19,0,0,0,1.18,1.53c3,0,9.81.11,13.91.11,13.34,0,20.37-7.39,24.87-28.65l5.28-24.4,4.94-22.88A1.2,1.2,0,0,0,153,40.76Z"/><path d="M394.47,89.52A1.21,1.21,0,0,1,393.24,88L406,28.12"/><path d="M412.24,88l5.17-25.56Z"/><path d="M393.43,88.77a6.76,6.76,0,0,1,.14-2.28l6.07-28.43-6.4,30a1.21,1.21,0,0,0,1.23,1.52H396c-.85,0-2.49-.35-2.59-.76Z"/><path d="M411.23,89.18a8,8,0,0,1-2.4.34h1.56A2,2,0,0,0,412.24,88l.31-1.51c-.17.83-.85,2.5-1.32,2.69Z"/><path d="M414.83,75.22l2.28-11.28v0l-2.28,11.26Z"/><path d="M465.28,32.13,466,35a1.17,1.17,0,0,1-1.19,1.51"/><path d="M412.55,86.49l2.28-11.27Z"/><path d="M464.58,29.15l.7,3Z"/><path d="M417.11,63.94c.17-.83.45-2.19.63-3l2.44-11.42-2.77,12.93-.3,1.5Z"/><path d="M406.24,27.13l-.53,2.5-6.07,28.43L406,28.12l.21-1Z"/><path d="M466,35l-.7-2.91-.7-3-.35-1.51c-1.38-5.37-5.44-8.46-14.24-8.46l-13.7,0H409.48a2,2,0,0,0-1.87,1.52h0l-.63,3-.74,3.51-.21,1-6.39,29.94-6.07,28.43a6.76,6.76,0,0,0-.14,2.28c.11.41,1.74.76,2.59.76h12.81a7.92,7.92,0,0,0,2.4-.35c.46-.18,1.15-1.86,1.32-2.69l2.28-11.27L417.11,64v0l.3-1.5,2.77-12.93,2.43-11.43a2,2,0,0,1,1.88-1.51l40.3,0A1.17,1.17,0,0,0,466,35Z"/><path d="M517.86,8.72l-3.1,0h-12.9A3.29,3.29,0,0,0,499.43,10L470.91,51.8c-.48.71-1,.6-1.22-.23l-2.1-9.2a2,2,0,0,0-1.9-1.51H447.36a1.11,1.11,0,0,0-1.13,1.49l8.22,28.78a6.86,6.86,0,0,1,0,3l-3.58,13.93a1.15,1.15,0,0,0,1.16,1.51H470.2a2.11,2.11,0,0,0,1.93-1.51l3.58-13.93A9.38,9.38,0,0,1,477,71.38L523.34,9.92c.51-.68.23-1.23-.62-1.23l-4.86,0Z"/><path d="M372.18,44.77h0a1.87,1.87,0,0,1-1.81,1.6H347.12a1,1,0,0,1-1.1-1.22s0,0,0,0h0a.17.17,0,0,0,0-.07s0-.17.11-.4c2.22-5.9,6.74-9.78,15.24-9.78,9.57,0,11.44,4.68,10.79,9.93Zm-6.82-26.83c-29.84,0-36.91,18.11-40.88,36.39-4,18.64-3.62,36.06,27.25,36.06h8.66c8.16,0,16.34-.09,19.65-.12a2,2,0,0,0,1.85-1.52l1.25-6.11.25-1.19,1.49-7.29a1.22,1.22,0,0,0-1.24-1.52H355.88c-11.05,0-14.32-2.93-13.12-11.56h44.41a1.83,1.83,0,0,0,1.61-1.14,1.9,1.9,0,0,0,.11-.39h0c6.59-24.85,4.7-41.59-23.53-41.59Z"/><path d="M224.32,44.68l-.42,1.49h0l-3.35,11.88L217.2,69.92a2.17,2.17,0,0,1-2,1.49H197.49c-13.45,0-16.73-10.52-13.45-26,3.27-15.88,9.69-25.74,22.93-26.74,18.1-1.37,21.72,11.36,17.35,26.05ZM236.48,70.5s8.36-20.31,10.26-32C249.33,22.77,241.47,0,211.11,0c-30.18,0-43.29,21.74-48.29,45.37-5,23.8,1.55,44.67,31.56,44.5l23.68-.09,22.13-.08a2.11,2.11,0,0,0,1.94-1.5L246,73.49A1.16,1.16,0,0,0,244.83,72l-3.69,0-3.7,0a1,1,0,0,1-1.05-1.1,1.56,1.56,0,0,1,.09-.34Z"/><path d="M385.92,56.91a1,1,0,1,1-1-1A1,1,0,0,1,385.92,56.91Z"/><path d="M6,30.51c-8.34,12-7.3,27.56-.93,40.29.15.31.31.61.46.91l.3.57c.06.12.13.23.19.33l.33.6.61,1,.34.57c.23.37.47.74.71,1.1l.3.47c.33.49.67,1,1,1.47l0,0c.06.08.12.15.17.23l.93,1.24.36.45c.28.35.56.7.86,1.05.1.14.21.27.32.4l1.2,1.37,0,0,0,0c.4.44.81.86,1.22,1.29l.39.39,1,1,.39.38c.44.42.88.82,1.34,1.22h0l.23.2c.4.35.8.69,1.21,1l.5.4,1,.79.54.41,1.13.82.42.29.11.08c.36.25.73.49,1.1.73l.48.32c.56.35,1.14.71,1.72,1l.47.27c.43.24.86.49,1.3.72.23.13.47.25.71.37l.93.48.21.11.38.18c.48.23,1,.46,1.47.68l.31.14c.56.24,1.13.48,1.71.71l.41.16q.8.32,1.62.6l.2.07c.59.21,1.19.4,1.8.59l.43.13c.62.18,1.23.4,1.86.52,40.31,7.35,52-24.22,52-24.22C82,87.38,64.58,90.76,48,87c-.63-.14-1.23-.34-1.85-.52l-.46-.14c-.59-.18-1.18-.38-1.77-.58l-.25-.09c-.52-.18-1.05-.38-1.56-.58l-.44-.17-1.7-.7-.33-.15-1.43-.67-.41-.19-1.11-.57L36,82.26c-.45-.24-.89-.49-1.33-.74l-.44-.25c-.59-.35-1.16-.7-1.73-1.06L32,79.9l-1.23-.81-.39-.28L29.26,78l-.52-.39c-.35-.27-.7-.54-1-.82l-.47-.37c-.44-.36-.87-.72-1.3-1.1l-.14-.12c-.47-.4-.92-.82-1.37-1.24L24,73.56c-.33-.32-.66-.64-1-1l-.39-.38c-.41-.42-.81-.85-1.21-1.28l-.06-.06c-.41-.46-.82-.93-1.22-1.4l-.32-.38c-.3-.36-.59-.72-.88-1.09l-.33-.4c-.34-.45-.68-.9-1-1.36-9.19-12.52-12.48-29.8-5.15-44"/><path d="M31.85,20.42c-6,8.67-5.7,20.28-1,29.46a39.4,39.4,0,0,0,2.67,4.45,21.06,21.06,0,0,0,3.1,3.87c.44.48.89.95,1.35,1.4l.36.36c.45.43.91.86,1.38,1.28l.06,0h0c.53.46,1.07.9,1.62,1.34l.36.28c.55.43,1.11.84,1.69,1.24l0,0c.25.18.51.34.77.51s.24.17.37.24c.41.27.82.52,1.25.77l.17.1,1.11.62.39.2c.26.14.52.28.78.4l.11.06q.79.39,1.62.75l.35.15,1.33.53.56.21c.41.15.81.29,1.22.42l.55.18a13.46,13.46,0,0,0,1.75.51C87,75,94.14,51,94.14,51c-6.48,9.33-19,13.78-32.4,10.31-.6-.16-1.18-.33-1.77-.51l-.53-.17-1.23-.43L57.65,60l-1.32-.53L56,59.34c-.55-.24-1.09-.49-1.62-.76-.28-.13-.55-.27-.82-.41l-.47-.24-1-.59-.24-.13c-.43-.25-.84-.51-1.25-.77l-.38-.25-.81-.53q-.85-.6-1.68-1.23l-.38-.3A37.56,37.56,0,0,1,34.58,36c-2.31-7.43-1.81-15.77,2.2-22.55"/><path d="M53.61,12.87a18.14,18.14,0,0,0-1.43,17.5A24.59,24.59,0,0,0,66.32,43.59l.78.27.34.11a8.62,8.62,0,0,0,1.1.32c17.19,3.32,21.85-8.82,23.09-10.6C87.55,39.56,80.69,41,72.27,38.93a20.08,20.08,0,0,1-2-.63,24.17,24.17,0,0,1-2.42-1,25.18,25.18,0,0,1-4.24-2.59C56,29,51.36,18.09,56.27,9.21"/><path d="M247.16,114.73,242.21,126h-5.47l.45-10.25-4,10.25h-5.3l-.13-11.28.58-2.79h3.75l-.72,11.15,4.16-11.15h5.23l-.38,11.29,4.13-11.29h3.26l-.58,2.79Z"/><path d="M255.79,118.07c.48-2.2.34-2.61-.79-2.61h-1.72l-1.1,5.16L250.49,126h-3.2l2.62-12.24.38-1.79h2.92l.38.83a7.62,7.62,0,0,1,3.33-1c3.51,0,3.24,2.65,2.48,6.26Z"/><path d="M266.18,110.19c-1.41,0-2.3-.41-2-2.13a2.51,2.51,0,0,1,2.85-2.14c1.38,0,2.31.42,1.93,2.14a2.48,2.48,0,0,1-2.82,2.13ZM264.67,126H261.5l.62-5.5,1.1-5.09-2.2-.48.62-3h6l-3,14.06Z"/><path d="M278.39,114.93l-4,.48-1.13,5.37c-.31,1.48-.31,1.89,1,1.89h2.64l-.55,2.82a18.46,18.46,0,0,1-3.44.72c-4.05,0-4-2.23-3.3-5.57l1.1-5.26-2.2-.48.66-3h2.3l1.31-3.55H276l-.76,3.55H279l-.65,3Z"/><path d="M286.61,115.11a3,3,0,0,0-3.2,2.68l5.3-.44c.24-1.17,0-2.24-2.1-2.24Zm-3.71,5.23c-.25,1.72.41,2.3,2.61,2.3h5.54l-.55,2.62a27.07,27.07,0,0,1-5.82.92c-6.15,0-6.22-3.47-5.43-7.18s2.2-7.26,8.15-7.26c5.75,0,6,3.47,4.61,8.6Z"/><path d="M304.63,126h-3.16l.62-5.5,2.23-10.46-2.2-.52.65-3h6L304.63,126Z"/><path d="M316.06,115.11a3,3,0,0,0-3.2,2.68l5.3-.44c.24-1.17,0-2.24-2.1-2.24Zm-3.72,5.23c-.24,1.72.42,2.3,2.62,2.3h5.54l-.55,2.62a27.07,27.07,0,0,1-5.82.92c-6.16,0-6.22-3.47-5.43-7.18s2.2-7.26,8.15-7.26c5.74,0,6,3.47,4.61,8.6Z"/><path d="M336,115.28l-5.12,0c-2.34,0-2.59.72-2.76,1.48l-.14.69,7.44.55a20.54,20.54,0,0,1-.28,3.71c-.45,2.24-2.75,4.51-6.91,4.51a30.75,30.75,0,0,1-5.41-.79l.59-2.72h5.13c2.27,0,2.58-.62,2.72-1.23l.17-.9-7.3-.55a11.75,11.75,0,0,1,.11-3.64c.55-2.48,2.82-4.61,7-4.61a32.27,32.27,0,0,1,5.4.75l-.62,2.72Z"/><path d="M349.8,115.28l-5.12,0c-2.34,0-2.58.72-2.76,1.48l-.14.69,7.44.55a20.54,20.54,0,0,1-.28,3.71c-.45,2.24-2.75,4.51-6.91,4.51a30.57,30.57,0,0,1-5.4-.79l.58-2.72h5.13c2.27,0,2.58-.62,2.71-1.23l.18-.9-7.3-.55a11.75,11.75,0,0,1,.11-3.64c.55-2.48,2.82-4.61,7-4.61a32.27,32.27,0,0,1,5.4.75l-.62,2.72Z"/><path d="M354.13,128.25h-2.75l.1-2.07c-1-.06-1.51-.78-1.27-2,.38-1.72,1.44-2.13,2.85-2.13s2.31.41,1.93,2.13l-.86,4.06Z"/><path d="M372.53,115.42c-2.06,0-2.78,1.24-3.27,3.51s-.34,3.61,1.72,3.61h2.86l1.58-7.12Zm4.71,8.77-.38,1.82L374,126l-.42-.89a14,14,0,0,1-4.26,1.09c-4.41,0-4.61-3.61-3.82-7.25s2.51-7.23,6.88-7.23a13.15,13.15,0,0,1,3.71.8l1.76-6H381l-3.75,17.64Z"/><path d="M388.63,115.28c-2.68,0-3.54,1.51-4,3.71s-.24,3.75,2.4,3.75,3.58-1.48,4.06-3.75.35-3.71-2.44-3.71Zm-2.34,10.94c-5.67,0-6.12-3.54-5.36-7.23s2.78-7.18,8.46-7.18,6.16,3.5,5.36,7.18S392,126.22,386.29,126.22Z"/><path d="M418.49,126l.62-5.43.31-1.55c.45-2.07.72-3.58-1.45-3.58h-1.68a13.48,13.48,0,0,1-.41,3.54l-1.48,7h-3.2l.62-5.43.31-1.55c.44-2.07.72-3.58-1.45-3.58h-1.37L407,126h-3.69l3-14.07h2.89l.44.86a9.46,9.46,0,0,1,3.55-1,2.55,2.55,0,0,1,2.41,1.24,10.36,10.36,0,0,1,4.06-1.24c4.4,0,4.26,3.58,3.47,7.22l-1.48,7Z"/><path d="M433.11,115.28c-2.68,0-3.54,1.51-4,3.71s-.24,3.75,2.4,3.75,3.58-1.48,4.06-3.75S435.9,115.28,433.11,115.28Zm-2.34,10.94c-5.68,0-6.12-3.54-5.37-7.23s2.79-7.18,8.47-7.18,6.15,3.5,5.36,7.18S436.45,126.22,430.77,126.22Z"/><path d="M448.79,118.07c.48-2.2.34-2.61-.79-2.61h-1.72l-1.1,5.16L443.49,126h-3.2l2.62-12.24.38-1.79h2.92l.38.83a7.63,7.63,0,0,1,3.34-1c3.5,0,3.23,2.65,2.47,6.26Z"/><path d="M461.11,115.11a3,3,0,0,0-3.2,2.68l5.3-.44c.24-1.17,0-2.24-2.1-2.24Zm-3.71,5.23c-.24,1.72.41,2.3,2.61,2.3h5.54l-.55,2.62a27.07,27.07,0,0,1-5.82.92c-6.15,0-6.22-3.47-5.43-7.18s2.2-7.26,8.15-7.26c5.74,0,6,3.47,4.61,8.6Z"/><path d="M469.6,126.22c-1.45,0-2.34-.41-2-2.1s1.41-2.13,2.86-2.13,2.26.41,1.92,2.13A2.52,2.52,0,0,1,469.6,126.22Z"/></svg>